<?xml version="1.0" encoding="UTF-8"?>
<svg id="Layer_1" data-name="Layer 1" xmlns="http://www.w3.org/2000/svg" xmlns:xlink="http://www.w3.org/1999/xlink" viewBox="0 0 1288.95 290.16">
  <defs>
    <style>
      .cls-1, .cls-2 {
        fill: #fff;
      }

      .cls-3 {
        filter: url(#drop-shadow-9);
      }

      .cls-3, .cls-2, .cls-4, .cls-5 {
        stroke-miterlimit: 10;
      }

      .cls-3, .cls-5 {
        fill: #fd394d;
        stroke: #fff;
        stroke-width: 3.79px;
      }

      .cls-2 {
        filter: url(#drop-shadow-8);
        stroke: url(#linear-gradient);
        stroke-width: .63px;
      }

      .cls-4 {
        fill: none;
        stroke: url(#linear-gradient-2);
        stroke-width: 3.15px;
      }

      .cls-6 {
        fill: url(#linear-gradient-3);
      }

      .cls-5 {
        filter: url(#drop-shadow-7);
      }
    </style>
    <filter id="drop-shadow-7" filterUnits="userSpaceOnUse">
      <feOffset dx="4.42" dy="4.42"/>
      <feGaussianBlur result="blur" stdDeviation="3.15"/>
      <feFlood flood-color="#000" flood-opacity=".2"/>
      <feComposite in2="blur" operator="in"/>
      <feComposite in="SourceGraphic"/>
    </filter>
    <linearGradient id="linear-gradient" x1="156.31" y1="139.69" x2="255.19" y2="139.69" gradientUnits="userSpaceOnUse">
      <stop offset="0" stop-color="#05d5fb"/>
      <stop offset="1" stop-color="#00487f"/>
    </linearGradient>
    <filter id="drop-shadow-8" filterUnits="userSpaceOnUse">
      <feOffset dx="4.42" dy="4.42"/>
      <feGaussianBlur result="blur-2" stdDeviation="3.15"/>
      <feFlood flood-color="#000" flood-opacity=".2"/>
      <feComposite in2="blur-2" operator="in"/>
      <feComposite in="SourceGraphic"/>
    </filter>
    <linearGradient id="linear-gradient-2" x1="166.14" y1="139.69" x2="245.36" y2="139.69" xlink:href="#linear-gradient"/>
    <linearGradient id="linear-gradient-3" x1="180.17" y1="139.69" x2="231.33" y2="139.69" xlink:href="#linear-gradient"/>
    <filter id="drop-shadow-9" filterUnits="userSpaceOnUse">
      <feOffset dx="4.42" dy="4.42"/>
      <feGaussianBlur result="blur-3" stdDeviation="3.15"/>
      <feFlood flood-color="#000" flood-opacity=".2"/>
      <feComposite in2="blur-3" operator="in"/>
      <feComposite in="SourceGraphic"/>
    </filter>
  </defs>
  <g>
    <path class="cls-5" d="m9.72,198.33c5.18-5.72,16.74-20.07,33.52-49.82,8.82-15.64,13.64-33.23,13.99-51.19.16-8.26-.17-16.87-1.56-23.82-.62-3.09,3.4-4.87,5.31-2.36,3.68,4.86,7.49,14.2,8.33,32.09.04.94.5,1.84,1.29,2.33,2.8,1.74,9.16-1.16,6.86-67.3-.08-2.34,2.44-3.86,4.47-2.69,6.26,3.63,16.47,15.96,14.79,57.83-.1,2.58,2.89,4.09,4.88,2.43,8.46-7.04,24.03-27.73,21.04-83.64-.14-2.55,2.8-4.11,4.8-2.52,7.85,6.25,20.04,25.82.94,84.62-.63,1.93.82,3.96,2.85,3.91,1.09-.03,2.3-.37,3.51-1.33,1.02-.82,2.19-1.4,3.28-2.12,8.34-5.5,41.83-18.75,67.45-17.9,3.31.11,3.97,4.77.82,5.81-28.54,9.45-97.19,38.92-104.02,105.3-.16,1.6.97,3.04,2.56,3.26,8.04,1.1,31.3,4.49,42.98,8.53,2.87.99,2.59,5.15-.39,5.74-21.71,4.32-87.91,15.1-136.47-2.37-2-.72-2.63-3.23-1.21-4.8Z"/>
    <circle class="cls-2" cx="205.75" cy="139.69" r="49.13"/>
    <circle class="cls-4" cx="205.75" cy="139.69" r="38.04"/>
    <circle class="cls-6" cx="205.75" cy="139.69" r="25.58"/>
    <circle class="cls-1" cx="203.16" cy="120.31" r="10.95"/>
    <path class="cls-3" d="m396.66,83.03c-5.18,5.72-16.74,20.07-33.52,49.82-8.82,15.64-13.64,33.23-13.99,51.19-.16,8.26.17,16.87,1.56,23.82.62,3.09-3.4,4.87-5.31,2.36-3.68-4.86-7.49-14.2-8.33-32.09-.04-.94-.5-1.84-1.29-2.33-2.8-1.74-9.16,1.16-6.86,67.3.08,2.34-2.44,3.86-4.47,2.69-6.26-3.63-16.47-15.96-14.79-57.83.1-2.58-2.89-4.09-4.88-2.43-8.46,7.04-24.03,27.73-21.04,83.64.14,2.55-2.8,4.11-4.8,2.52-7.85-6.25-20.04-25.82-.94-84.62.63-1.93-.82-3.96-2.85-3.91-1.09.03-2.3.37-3.51,1.33-1.02.82-2.19,1.4-3.28,2.12-8.34,5.5-41.83,18.75-67.45,17.9-3.31-.11-3.97-4.77-.82-5.81,28.54-9.45,97.19-38.92,104.02-105.3.16-1.6-.97-3.04-2.56-3.26-8.04-1.1-31.3-4.49-42.98-8.53-2.87-.99-2.59-5.15.39-5.74,21.71-4.32,87.91-15.1,136.47,2.37,2,.72,2.63,3.23,1.21,4.8Z"/>
  </g>
  <g>
    <g>
      <path class="cls-1" d="m542.22,134.15l-.1-44.94-22.28,37.19h-5.62l-22.27-36.61v44.36h-12.01v-67.79h10.36l26.92,44.94,26.44-44.94h10.36l.1,67.79h-11.91Z"/>
      <path class="cls-1" d="m626.09,118.46h-33.9l-6.68,15.69h-12.98l30.51-67.79h12.4l30.6,67.79h-13.17l-6.78-15.69Zm-4.16-9.88l-12.78-29.64-12.69,29.64h25.47Z"/>
      <path class="cls-1" d="m664.35,66.35h12.59v57.14h35.45v10.65h-48.04v-67.79Z"/>
      <path class="cls-1" d="m725.85,126.98l4.36-9.78c5.42,4.36,14.04,7.46,22.37,7.46,10.56,0,15.01-3.78,15.01-8.81,0-14.62-40.29-5.04-40.29-30.22,0-10.94,8.72-20.24,27.31-20.24,8.14,0,16.66,2.13,22.57,6l-3.97,9.78c-6.1-3.58-12.78-5.33-18.69-5.33-10.46,0-14.72,4.07-14.72,9.2,0,14.43,40.19,5.04,40.19,29.93,0,10.85-8.81,20.14-27.41,20.14-10.56,0-21.11-3.29-26.73-8.13Z"/>
      <path class="cls-1" d="m862.41,66.35v67.79h-12.59v-29.05h-35.06v29.05h-12.59v-67.79h12.59v27.99h35.06v-27.99h12.59Z"/>
      <path class="cls-1" d="m941.15,123.59v10.56h-50.85v-67.79h49.49v10.56h-36.9v17.63h32.73v10.36h-32.73v18.69h38.25Z"/>
      <path class="cls-1" d="m978.64,77h-22.47v-10.65h57.53v10.65h-22.47v57.14h-12.59v-57.14Z"/>
      <path class="cls-1" d="m1130.98,66.35l-22.47,67.79h-13.36l-16.76-50.17-17.04,50.17h-13.46l-22.47-67.79h13.07l16.85,51.52,17.53-51.52h11.62l17.14,51.81,17.34-51.81h12.01Z"/>
      <path class="cls-1" d="m1192.78,118.46h-33.9l-6.68,15.69h-12.98l30.51-67.79h12.4l30.6,67.79h-13.17l-6.78-15.69Zm-4.16-9.88l-12.78-29.64-12.69,29.64h25.47Z"/>
      <path class="cls-1" d="m1275.39,134.15l-13.85-19.85c-.87.1-1.74.1-2.62.1h-15.3v19.76h-12.59v-67.79h27.89c17.82,0,28.86,9.1,28.86,24.12,0,10.27-5.23,17.82-14.43,21.4l15.59,22.28h-13.56Zm-17.05-57.14h-14.72v27.02h14.72c11.04,0,16.76-5.04,16.76-13.56s-5.71-13.46-16.76-13.46Z"/>
    </g>
    <g>
      <path class="cls-1" d="m511.31,211.54v4.05h-31.36v-44.35h30.41v4.05h-25.72v15.78h22.93v3.99h-22.93v16.47h26.67Z"/>
      <path class="cls-1" d="m549.64,200.26v15.33h-4.62v-15.33l-17.74-29.02h5l15.21,24.9,15.21-24.9h4.69l-17.74,29.02Z"/>
      <path class="cls-1" d="m617.75,211.54v4.05h-31.36v-44.35h30.41v4.05h-25.72v15.78h22.93v3.99h-22.93v16.47h26.67Z"/>
      <path class="cls-1" d="m666.8,193.42c0-12.99,9.88-22.56,23.25-22.56,6.46,0,12.29,2.15,16.22,6.46l-2.98,2.98c-3.61-3.67-8.05-5.26-13.11-5.26-10.71,0-18.75,7.86-18.75,18.37s8.05,18.37,18.75,18.37c5.07,0,9.5-1.58,13.11-5.32l2.98,2.98c-3.93,4.31-9.76,6.53-16.28,6.53-13.3,0-23.19-9.57-23.19-22.56Z"/>
      <path class="cls-1" d="m755.63,203.75h-24.71l-5.32,11.85h-4.88l20.27-44.35h4.62l20.27,44.35h-4.94l-5.32-11.85Zm-1.71-3.8l-10.64-23.82-10.64,23.82h21.29Z"/>
      <path class="cls-1" d="m816.2,215.59l-10.14-14.26c-1.14.13-2.28.19-3.55.19h-11.91v14.07h-4.69v-44.35h16.6c11.28,0,18.12,5.7,18.12,15.21,0,6.97-3.67,11.85-10.14,13.94l10.83,15.21h-5.13Zm-.25-29.14c0-7.1-4.69-11.15-13.56-11.15h-11.78v22.24h11.78c8.87,0,13.56-4.12,13.56-11.09Z"/>
      <path class="cls-1" d="m875.76,211.54v4.05h-31.36v-44.35h30.41v4.05h-25.72v15.78h22.93v3.99h-22.93v16.47h26.67Z"/>
    </g>
  </g>
</svg>